<svg xmlns="http://www.w3.org/2000/svg" xmlns:xlink="http://www.w3.org/1999/xlink" viewBox="0 0 100 100"><defs><style>.cls-1{fill:#fff;}.cls-2{fill:url(#未命名的渐变_284);}</style><linearGradient id="未命名的渐变_284" x1="16.33" y1="16.33" x2="83.67" y2="83.67" gradientUnits="userSpaceOnUse"><stop offset="0" stop-color="#3fc6ff"/><stop offset="0.5" stop-color="#2ac0ff"/><stop offset="1" stop-color="#005eff"/></linearGradient></defs><title>logo01</title><g id="图层_1" data-name="图层 1"><rect class="cls-1" width="100" height="100"/></g><g id="图层_1_复制" data-name="图层 1_复制"><circle class="cls-2" cx="50" cy="50" r="47.62"/><circle class="cls-1" cx="81.53" cy="25.96" r="3.11"/><circle class="cls-1" cx="75.73" cy="31.22" r="2.15"/><path class="cls-1" d="M48.66,71.31a.18.18,0,0,1-.13-.06,7.17,7.17,0,0,0-4-2.3l-.16,0H30.08a.18.18,0,0,1-.17-.17V37.46a.18.18,0,0,1,.17-.17H42.3a5.36,5.36,0,0,1,4.12,1.43c.85.72,1.31,1.49,2.19,1.49h0V37.07a8,8,0,0,0-6.36-3.13H26.74a.18.18,0,0,0-.18.17v38a.18.18,0,0,0,.18.18H44.15c1.73.29,4.13,2.54,4.41,4.14h.1Z"/><path class="cls-1" d="M71.92,33.94H56.36A8,8,0,0,0,50,37.07v3.14h0c1,0,1.5-.78,2.15-1.47,1.11-1.18,2.12-1.45,4.16-1.45H68.57a.18.18,0,0,1,.18.17V67.25a1.67,1.67,0,0,1-1.67,1.67H54.27l-.16,0a7.17,7.17,0,0,0-4,2.3.18.18,0,0,1-.13.06v5.11h.06a6.38,6.38,0,0,1,4.46-4.14h17.4a.18.18,0,0,0,.18-.18v-38A.18.18,0,0,0,71.92,33.94Z"/></g></svg>